<?xml version="1.0" encoding="utf-8"?>
<!-- Generator: Adobe Illustrator 17.0.0, SVG Export Plug-In . SVG Version: 6.00 Build 0)  -->
<!DOCTYPE svg PUBLIC "-//W3C//DTD SVG 1.1//EN" "http://www.w3.org/Graphics/SVG/1.1/DTD/svg11.dtd">
<svg version="1.1" id="Lager_2" xmlns="http://www.w3.org/2000/svg" xmlns:xlink="http://www.w3.org/1999/xlink" x="0px" y="0px"
	 width="960px" height="560px" viewBox="0 0 960 560" enable-background="new 0 0 960 560" xml:space="preserve">
<path fill="none" stroke="#000000" stroke-miterlimit="10" d="M378.5,315.25c0,0,18-50,22.75-71.25s8.75-57.25,17.5-68.75
	s33-33.25,33.75,5.75s-5,69.5-5,69.5s18.5-54.25,25.75-66.25s24.75-19.75,29.5-17.5s15,8.75,7.25,48.25s-22.716,84.624-21.75,102.25
	c1,18.25,5.75,30.75,20.75,28.5s24.75-8.5,22-36.75s2-57,3.25-62.75s1.25-3.5,0,11.75s-3.75,45.199-1.5,53.6
	c2.25,8.4,9.5,11.65,17.5,1.9s16.5-43.75,22.5-57.5s8.25-12.25,7.5-0.5s-0.25,103.25-13.5,114.25s-22.25,13.75-23.25,1.75
	s24.278-38.5,36.889-50.5c12.611-12,20.861-27.5,27.361-43.25s8-18.25,8-18.25"/>
</svg>
